<svg xmlns="http://www.w3.org/2000/svg" xmlns:xlink="http://www.w3.org/1999/xlink" width="12" height="12" viewBox="0 0 12 12">
    <defs>
        <path id="4p9f1tmrza" d="M10 6.5c0-2.205-1.794-4-4-4-2.205 0-4 1.795-4 4 0 2.206 1.795 4 4 4 2.206 0 4-1.794 4-4zm.5 0C10.5 8.981 8.481 11 6 11S1.5 8.981 1.5 6.5 3.519 2 6 2c1.107 0 2.12.404 2.905 1.07l.716-.716.354.353-.708.708c.762.806 1.233 1.89 1.233 3.085zm-6-5h3V1h-3v.5zM5.75 7h.5V4h-.5v3z"/>
    </defs>
    <g fill="none" fill-rule="evenodd">
        <g>
            <g>
                <g>
                    <g transform="translate(-124 -332) translate(108 108) translate(16 223) translate(0 1)">
                        <path d="M0 0H12V12H0z"/>
                        <mask id="cwh9dzhgpb" fill="#fff">
                            <use xlink:href="#4p9f1tmrza"/>
                        </mask>
                        <use fill="#2E3134" xlink:href="#4p9f1tmrza"/>
                        <g fill="#2E3134" mask="url(#cwh9dzhgpb)">
                            <path d="M0 0H12V12H0z"/>
                        </g>
                    </g>
                </g>
            </g>
        </g>
    </g>
</svg>
